HIERARCHY
ROOT hip
{
  OFFSET 50.4891 85.2492 125.703
  CHANNELS 6 Xposition Yposition Zposition Zrotation Xrotation Yrotation
  JOINT abdomen
  {
    OFFSET 0 20.6881 -0.73152
    CHANNELS 3 Zrotation Xrotation Yrotation
    JOINT chest
    {
      OFFSET 0 11.7043 -0.48768
      CHANNELS 3 Zrotation Xrotation Yrotation
      JOINT neck
      {
        OFFSET 0 22.1894 -2.19456
        CHANNELS 3 Zrotation Xrotation Yrotation
        JOINT head
        {
          OFFSET -0.24384 7.07133 1.2192
          CHANNELS 3 Zrotation Xrotation Yrotation
          JOINT leftEye
          {
            OFFSET 4.14528 8.04674 8.04672
            CHANNELS 3 Zrotation Xrotation Yrotation
            End Site
            {
              OFFSET 1 0 0
            }
          }
          JOINT rightEye
          {
            OFFSET -3.6576 8.04674 8.04672
            CHANNELS 3 Zrotation Xrotation Yrotation
            End Site
            {
              OFFSET 1 0 0
            }
          }
        }
      }
      JOINT rCollar
      {
        OFFSET -2.68224 19.2634 -4.8768
        CHANNELS 3 Zrotation Xrotation Yrotation
        JOINT rShldr
        {
          OFFSET -8.77824 -1.95073 1.46304
          CHANNELS 3 Zrotation Xrotation Yrotation
          JOINT rForeArm
          {
            OFFSET -28.1742 -1.7115 0.48768
            CHANNELS 3 Zrotation Xrotation Yrotation
            JOINT rHand
            {
              OFFSET -22.5879 0.773209 7.07136
              CHANNELS 3 Zrotation Xrotation Yrotation
              JOINT rThumb1
              {
                OFFSET -1.2192 -0.487915 3.41376
                CHANNELS 3 Zrotation Xrotation Yrotation
                JOINT rThumb2
                {
                  OFFSET -3.37035 -0.52449 3.41376
                  CHANNELS 3 Zrotation Xrotation Yrotation
                  End Site
                  {
                    OFFSET -1.78271 -1.18214 1.43049
                  }
                }
              }
              JOINT rIndex1
              {
                OFFSET -7.75947 0.938293 5.60832
                CHANNELS 3 Zrotation Xrotation Yrotation
                JOINT rIndex2
                {
                  OFFSET -2.54057 -0.884171 1.56538
                  CHANNELS 3 Zrotation Xrotation Yrotation
                  End Site
                  {
                    OFFSET -1.62519 -0.234802 1.16502
                  }
                }
              }
              JOINT rMid1
              {
                OFFSET -8.24714 1.18213 3.41376
                CHANNELS 3 Zrotation Xrotation Yrotation
                JOINT rMid2
                {
                  OFFSET -3.10165 -0.590103 1.0647
                  CHANNELS 3 Zrotation Xrotation Yrotation
                  End Site
                  {
                    OFFSET -2.48547 -0.328903 0.83742
                  }
                }
              }
              JOINT rRing1
              {
                OFFSET -8.82822 0.546677 1.51678
                CHANNELS 3 Zrotation Xrotation Yrotation
                JOINT rRing2
                {
                  OFFSET -2.60934 -0.819778 -0.0198488
                  CHANNELS 3 Zrotation Xrotation Yrotation
                  End Site
                  {
                    OFFSET -2.33842 -0.294052 0.168128
                  }
                }
              }
              JOINT rPinky1
              {
                OFFSET -8.27202 -0.0477905 -0.4584
                CHANNELS 3 Zrotation Xrotation Yrotation
                JOINT rPinky2
                {
                  OFFSET -1.82734 -0.647385 -0.700984
                  CHANNELS 3 Zrotation Xrotation Yrotation
                  End Site
                  {
                    OFFSET -1.69225 -0.51767 -0.607171
                  }
                }
              }
            }
          }
        }
      }
      JOINT lCollar
      {
        OFFSET 2.68224 19.2634 -4.8768
        CHANNELS 3 Zrotation Xrotation Yrotation
        JOINT lShldr
        {
          OFFSET 8.77824 -1.95073 1.46304
          CHANNELS 3 Zrotation Xrotation Yrotation
          JOINT lForeArm
          {
            OFFSET 28.1742 -1.7115 0.48768
            CHANNELS 3 Zrotation Xrotation Yrotation
            JOINT lHand
            {
              OFFSET 22.5879 0.773209 7.07136
              CHANNELS 3 Zrotation Xrotation Yrotation
              JOINT lThumb1
              {
                OFFSET 1.2192 -0.487915 3.41376
                CHANNELS 3 Zrotation Xrotation Yrotation
                JOINT lThumb2
                {
                  OFFSET 3.37035 -0.52449 3.41376
                  CHANNELS 3 Zrotation Xrotation Yrotation
                  End Site
                  {
                    OFFSET 1.78271 -1.18214 1.43049
                  }
                }
              }
              JOINT lIndex1
              {
                OFFSET 7.75947 0.938293 5.60832
                CHANNELS 3 Zrotation Xrotation Yrotation
                JOINT lIndex2
                {
                  OFFSET 2.54057 -0.884171 1.56538
                  CHANNELS 3 Zrotation Xrotation Yrotation
                  End Site
                  {
                    OFFSET 1.62519 -0.234802 1.16502
                  }
                }
              }
              JOINT lMid1
              {
                OFFSET 8.24714 1.18213 3.41376
                CHANNELS 3 Zrotation Xrotation Yrotation
                JOINT lMid2
                {
                  OFFSET 3.10165 -0.590103 1.0647
                  CHANNELS 3 Zrotation Xrotation Yrotation
                  End Site
                  {
                    OFFSET 2.48547 -0.328903 0.83742
                  }
                }
              }
              JOINT lRing1
              {
                OFFSET 8.82822 0.546677 1.51678
                CHANNELS 3 Zrotation Xrotation Yrotation
                JOINT lRing2
                {
                  OFFSET 2.60934 -0.819778 -0.0198488
                  CHANNELS 3 Zrotation Xrotation Yrotation
                  End Site
                  {
                    OFFSET 2.33842 -0.294052 0.168128
                  }
                }
              }
              JOINT lPinky1
              {
                OFFSET 8.27202 -0.0477905 -0.4584
                CHANNELS 3 Zrotation Xrotation Yrotation
                JOINT lPinky2
                {
                  OFFSET 1.82734 -0.647385 -0.700984
                  CHANNELS 3 Zrotation Xrotation Yrotation
                  End Site
                  {
                    OFFSET 1.69225 -0.51767 -0.607171
                  }
                }
              }
            }
          }
        }
      }
    }
  }
  JOINT rButtock
  {
    OFFSET -8.77824 4.35084 1.2192
    CHANNELS 3 Zrotation Xrotation Yrotation
    JOINT rThigh
    {
      OFFSET 0 -1.70687 -2.19456
      CHANNELS 3 Zrotation Xrotation Yrotation
      JOINT rShin
      {
        OFFSET 0 -36.8199 0.73152
        CHANNELS 3 Zrotation Xrotation Yrotation
        JOINT rFoot
        {
          OFFSET 0.73152 -45.1104 -5.12064
          CHANNELS 3 Zrotation Xrotation Yrotation
          End Site
          {
            OFFSET -1.1221 -3.69964 12.103
          }
        }
      }
    }
  }
  JOINT lButtock
  {
    OFFSET 8.77824 4.35084 1.2192
    CHANNELS 3 Zrotation Xrotation Yrotation
    JOINT lThigh
    {
      OFFSET 0 -1.70687 -2.19456
      CHANNELS 3 Zrotation Xrotation Yrotation
      JOINT lShin
      {
        OFFSET 0 -36.8199 0.73152
        CHANNELS 3 Zrotation Xrotation Yrotation
        JOINT lFoot
        {
          OFFSET -0.73152 -45.1104 -5.12064
          CHANNELS 3 Zrotation Xrotation Yrotation
          End Site
          {
            OFFSET 1.1221 -3.69964 12.103
          }
        }
      }
    }
  }
}
MOTION
Frames:	8
Frame Time:	0.00833333
51.9576 84.1045 131.566 -1.59266 -3.37295 -168.836 3.53349 5.89908 2.93015 0.155682 -8.86426 1.01911 -5.85896 10.3225 -0.707349 10.9941 -30.7132 2.36095 -0 0 0 -0 0 0 1.86166e-014 3.24788e-014 -1.79816e-013 79.4023 26.6272 -11.2291 -16.6988 -9.35311 31.1618 -0.514291 19.9477 2.92378 5.58532e-010 -4.63747e-010 -2.8203e-010 9.59671e-010 -7.92568e-010 -4.97415e-010 5.58533e-010 -4.63752e-010 -2.82038e-010 7.73091 5.47488 0.417314 5.5853e-010 -4.63751e-010 -2.8203e-010 2.90554 0.965183 0.102902 5.58534e-010 -4.63752e-010 -2.82031e-010 10.2786 0.731801 0.0259123 5.58525e-010 -4.63751e-010 -2.82021e-010 2.22167 -0.733487 -0.20892 1.85729e-014 3.24754e-014 -1.79891e-013 -82.5038 28.2807 14.1424 15.9441 -8.63644 -29.5524 0.241947 13.8962 -1.99233 6.25888e-010 1.16109e-010 -2.41218e-010 1.07887e-009 1.91603e-010 -4.26369e-010 6.25886e-010 1.16114e-010 -2.41205e-010 -7.73091 5.47488 -0.417314 6.25884e-010 1.16103e-010 -2.41231e-010 -2.90554 0.965183 -0.102902 6.25889e-010 1.16114e-010 -2.41216e-010 -10.2786 0.731801 -0.0259123 6.25887e-010 1.16115e-010 -2.41226e-010 -2.22167 -0.733487 0.20892 -2.03217e-016 0 -3.88251e-019 8.35384 -14.969 13.5305 -0.023842 28.3491 0.521619 -6.72462 -14.2925 -20.3083 2.03217e-016 0 3.88251e-019 -3.25509 -12.2834 -7.68352 0.127382 24.1747 -0.681106 8.48629 -17.8135 19.7221 
51.9689 84.0091 131.6 -1.61185 -3.49242 -168.776 3.61273 6.07669 2.96292 0.125848 -8.96721 1.02664 -5.78247 10.3003 -0.697077 10.8369 -30.9461 2.36379 -0 0 0 -0 0 0 -8.78708e-015 7.72911e-014 -3.89903e-013 79.2231 26.5553 -11.1796 -16.6453 -9.30093 31.0468 -0.511415 19.8949 2.91538 1.59547e-009 -1.38535e-009 -2.16176e-010 2.75263e-009 -2.37599e-009 -4.01782e-010 1.59547e-009 -1.38536e-009 -2.16185e-010 7.73091 5.47488 0.417314 1.59547e-009 -1.38536e-009 -2.1618e-010 2.90554 0.965183 0.102902 1.59548e-009 -1.38536e-009 -2.16178e-010 10.2786 0.731801 0.0259123 1.59547e-009 -1.38536e-009 -2.16169e-010 2.22167 -0.733487 -0.20892 -8.8599e-015 7.72899e-014 -3.90014e-013 -82.2647 27.7272 13.889 15.7342 -8.44375 -29.1108 0.275332 14.795 -2.12703 1.23464e-009 4.29579e-010 -2.56141e-010 2.1296e-009 7.26166e-010 -4.6038e-010 1.23464e-009 4.29581e-010 -2.56128e-010 -7.73091 5.47488 -0.417314 1.23464e-009 4.29571e-010 -2.5615e-010 -2.90554 0.965183 -0.102902 1.23464e-009 4.29583e-010 -2.56141e-010 -10.2786 0.731801 -0.0259123 1.23464e-009 4.29584e-010 -2.56148e-010 -2.22167 -0.733487 0.20892 -2.03217e-016 0 -3.88251e-019 8.33868 -15.3519 13.1738 -0.0309706 28.7618 0.535236 -6.78567 -14.6072 -20.116 2.03217e-016 0 3.88251e-019 -3.10847 -12.7042 -7.17719 0.130104 24.656 -0.6893 8.45287 -18.157 19.3965 
51.9734 83.9017 131.634 -1.62687 -3.63401 -168.769 3.68189 6.24559 2.93582 0.111996 -9.03642 1.01756 -5.69512 10.2792 -0.676255 10.6949 -31.2555 2.40285 -0 0 0 -0 0 0 -2.44846e-014 9.84104e-014 -5.23102e-013 79.0385 26.507 -11.0871 -16.6042 -9.26079 30.9585 -0.510002 19.8689 2.91123 2.25302e-009 -1.99113e-009 -1.6703e-010 3.88971e-009 -3.41726e-009 -3.28333e-010 2.25302e-009 -1.99113e-009 -1.6704e-010 7.73091 5.47488 0.417314 2.25302e-009 -1.99113e-009 -1.67036e-010 2.90554 0.965183 0.102902 2.25302e-009 -1.99114e-009 -1.67032e-010 10.2786 0.731801 0.0259123 2.25301e-009 -1.99114e-009 -1.67024e-010 2.22167 -0.733487 -0.20892 -2.45671e-014 9.8411e-014 -5.23251e-013 -82.0478 27.2418 13.6284 15.5587 -8.28357 -28.7464 0.30746 15.5845 -2.2465 1.65145e-009 6.03148e-010 -3.18125e-010 2.84819e-009 1.02058e-009 -5.73397e-010 1.65145e-009 6.03148e-010 -3.18113e-010 -7.73091 5.47488 -0.417314 1.65144e-009 6.0314e-010 -3.18132e-010 -2.90554 0.965183 -0.102902 1.65145e-009 6.0315e-010 -3.18126e-010 -10.2786 0.731801 -0.0259123 1.65145e-009 6.03151e-010 -3.18132e-010 -2.22167 -0.733487 0.20892 -2.03217e-016 0 -3.88251e-019 8.33424 -15.7951 12.8123 -0.0387326 29.2283 0.550692 -6.85004 -14.9275 -19.9298 2.03217e-016 0 3.88251e-019 -2.95205 -13.2279 -6.63966 0.133883 25.2402 -0.698129 8.3879 -18.4802 19.0214 
51.9518 83.7918 131.684 -1.6294 -3.79878 -168.838 3.72445 6.39826 2.82168 0.119446 -9.04356 0.983789 -5.58303 10.2658 -0.640721 10.5723 -31.6855 2.49216 -0 0 0 -0 0 0 -2.26104e-014 7.83754e-014 -5.49426e-013 78.8521 26.4827 -10.9313 -16.5826 -9.23977 30.9125 -0.511539 19.8972 2.91574 2.36986e-009 -2.17624e-009 -1.29471e-010 4.09218e-009 -3.73695e-009 -2.65351e-010 2.36986e-009 -2.17624e-009 -1.2948e-010 7.73091 5.47488 0.417314 2.36986e-009 -2.17624e-009 -1.29477e-010 2.90554 0.965183 0.102902 2.36986e-009 -2.17624e-009 -1.29473e-010 10.2786 0.731801 0.0259123 2.36985e-009 -2.17624e-009 -1.29463e-010 2.22167 -0.733487 -0.20892 -2.26674e-014 7.83771e-014 -5.49623e-013 -81.8376 26.8106 13.341 15.4239 -8.16173 -28.4682 0.336963 16.2782 -2.35214 1.84249e-009 5.76923e-010 -4.8994e-010 3.17544e-009 9.71059e-010 -8.73752e-010 1.84249e-009 5.76923e-010 -4.89929e-010 -7.73091 5.47488 -0.417314 1.84249e-009 5.76916e-010 -4.89945e-010 -2.90554 0.965183 -0.102902 1.84249e-009 5.76925e-010 -4.89943e-010 -10.2786 0.731801 -0.0259123 1.84249e-009 5.76925e-010 -4.89948e-010 -2.22167 -0.733487 0.20892 -2.03217e-016 0 -3.88251e-019 8.33282 -16.2996 12.4541 -0.0472508 29.7456 0.568327 -6.9202 -15.2596 -19.7506 2.03217e-016 0 3.88251e-019 -2.78206 -13.8768 -6.04856 0.138969 25.9424 -0.707307 8.27346 -18.7611 18.5718 
51.9327 83.6664 131.783 -1.62927 -3.98337 -168.959 3.75584 6.54208 2.65112 0.14069 -9.0166 0.934221 -5.44709 10.2606 -0.595327 10.4552 -32.1982 2.61294 -0 0 0 -0 0 0 -1.14545e-014 3.23396e-014 -5.19368e-013 78.6686 26.4776 -10.7395 -16.5751 -9.23251 30.8964 -0.514554 19.9525 2.92455 2.2085e-009 -2.16454e-009 -8.81562e-011 3.81396e-009 -3.7195e-009 -1.90943e-010 2.2085e-009 -2.16454e-009 -8.81642e-011 7.73091 5.47488 0.417314 2.2085e-009 -2.16454e-009 -8.816e-011 2.90554 0.965183 0.102902 2.2085e-009 -2.16454e-009 -8.81566e-011 10.2786 0.731801 0.0259123 2.20849e-009 -2.16454e-009 -8.81445e-011 2.22167 -0.733487 -0.20892 -1.14625e-014 3.23421e-014 -5.19623e-013 -81.6347 26.4375 13.0374 15.3217 -8.07112 -28.2555 0.363729 16.8982 -2.44698 1.92411e-009 4.35366e-010 -7.45539e-010 3.31264e-009 7.22605e-010 -1.31777e-009 1.92411e-009 4.35366e-010 -7.45532e-010 -7.73091 5.47488 -0.417314 1.92412e-009 4.35361e-010 -7.45545e-010 -2.90554 0.965183 -0.102902 1.92411e-009 4.35365e-010 -7.45545e-010 -10.2786 0.731801 -0.0259123 1.92412e-009 4.35365e-010 -7.4555e-010 -2.22167 -0.733487 0.20892 -2.03217e-016 0 -3.88251e-019 8.33557 -16.8544 12.089 -0.0565379 30.3067 0.587876 -6.99517 -15.6094 -19.572 2.03217e-016 0 3.88251e-019 -2.58574 -14.6256 -5.40788 0.145238 26.7435 -0.717244 8.12261 -19.0246 18.0599 
51.9237 83.5069 131.898 -1.63961 -4.18825 -169.101 3.80343 6.68846 2.46206 0.169346 -8.99831 0.880322 -5.31787 10.2485 -0.545805 10.3492 -32.7224 2.75016 -0 0 0 -0 0 0 2.00331e-015 -1.17738e-014 -4.62528e-013 78.4759 26.4938 -10.5369 -16.5697 -9.22742 30.8849 -0.51678 19.9933 2.93105 1.93501e-009 -2.02402e-009 -6.61136e-011 3.34174e-009 -3.48026e-009 -1.47893e-010 1.93501e-009 -2.02402e-009 -6.61205e-011 7.73091 5.47488 0.417314 1.93501e-009 -2.02402e-009 -6.6115e-011 2.90554 0.965183 0.102902 1.93501e-009 -2.02402e-009 -6.61127e-011 10.2786 0.731801 0.0259123 1.935e-009 -2.02402e-009 -6.60987e-011 2.22167 -0.733487 -0.20892 2.04083e-015 -1.17709e-014 -4.62838e-013 -81.4701 26.1513 12.7503 15.2488 -8.00735 -28.1027 0.386019 17.3978 -2.52386 1.88513e-009 2.49887e-010 -9.63226e-010 3.24206e-009 3.99982e-010 -1.69446e-009 1.88512e-009 2.49887e-010 -9.63222e-010 -7.73091 5.47488 -0.417314 1.88513e-009 2.49884e-010 -9.63233e-010 -2.90554 0.965183 -0.102902 1.88512e-009 2.49884e-010 -9.63235e-010 -10.2786 0.731801 -0.0259123 1.88513e-009 2.49885e-010 -9.63241e-010 -2.22167 -0.733487 0.20892 -2.03217e-016 0 -3.88251e-019 8.35365 -17.4666 11.7064 -0.066743 30.9235 0.609056 -7.07018 -15.9587 -19.3968 2.03217e-016 0 3.88251e-019 -2.36491 -15.4436 -4.76176 0.152552 27.6241 -0.728601 7.96444 -19.3002 17.5319 
51.9167 83.3378 131.96 -1.67319 -4.41386 -169.232 3.89435 6.84883 2.29244 0.198871 -9.03149 0.833535 -5.22591 10.2142 -0.497891 10.2583 -33.1872 2.88793 -0 0 0 -0 0 0 1.07828e-014 -2.60416e-014 -4.08502e-013 78.2616 26.5339 -10.3484 -16.5545 -9.21287 30.8523 -0.51592 19.978 2.9286 1.71545e-009 -1.82266e-009 -8.63711e-011 2.96223e-009 -3.13458e-009 -1.78984e-010 1.71546e-009 -1.82266e-009 -8.63775e-011 7.73091 5.47488 0.417314 1.71545e-009 -1.82265e-009 -8.63711e-011 2.90554 0.965183 0.102902 1.71545e-009 -1.82265e-009 -8.63696e-011 10.2786 0.731801 0.0259123 1.71545e-009 -1.82265e-009 -8.63552e-011 2.22167 -0.733487 -0.20892 1.08357e-014 -2.60388e-014 -4.0885e-013 -81.3731 25.9817 12.5117 15.2014 -7.96586 -28.0041 0.401759 17.7303 -2.5754 1.71433e-009 9.18989e-011 -1.0213e-009 2.94596e-009 1.27954e-010 -1.79282e-009 1.71433e-009 9.18993e-011 -1.0213e-009 -7.73091 5.47488 -0.417314 1.71434e-009 9.18978e-011 -1.02131e-009 -2.90554 0.965183 -0.102902 1.71433e-009 9.18961e-011 -1.02131e-009 -10.2786 0.731801 -0.0259123 1.71434e-009 9.18962e-011 -1.02132e-009 -2.22167 -0.733487 0.20892 -2.03217e-016 0 -3.88251e-019 8.39748 -18.1432 11.295 -0.0780325 31.6082 0.631605 -7.1408 -16.289 -19.2282 2.03217e-016 0 3.88251e-019 -2.12518 -16.3005 -4.15508 0.16081 28.5647 -0.742053 7.82768 -19.618 17.034 
51.9182 83.1684 132.013 -1.74817 -4.66743 -169.351 4.06074 7.02487 2.1449 0.229645 -9.14212 0.795611 -5.19331 10.1595 -0.451775 10.1876 -33.5677 3.02483 -0 0 0 -0 0 0 1.19834e-014 3.62048e-015 -3.53132e-013 78.0176 26.6109 -10.1915 -16.5272 -9.1865 30.7937 -0.510342 19.8763 2.91239 1.57276e-009 -1.52799e-009 -1.53563e-010 2.7151e-009 -2.62597e-009 -2.92677e-010 1.57276e-009 -1.52798e-009 -1.5357e-010 7.73091 5.47488 0.417314 1.57276e-009 -1.52798e-009 -1.53563e-010 2.90554 0.965183 0.102902 1.57276e-009 -1.52798e-009 -1.53562e-010 10.2786 0.731801 0.0259123 1.57275e-009 -1.52798e-009 -1.5355e-010 2.22167 -0.733487 -0.20892 1.2002e-014 3.62193e-015 -3.53497e-013 -81.3699 25.9479 12.3446 15.1814 -7.94803 -27.9636 0.410075 17.8904 -2.60046 1.31854e-009 -3.45495e-011 -8.31014e-010 2.26451e-009 -8.45952e-011 -1.45779e-009 1.31854e-009 -3.45473e-011 -8.31009e-010 -7.73091 5.47488 -0.417314 1.31855e-009 -3.45482e-011 -8.31019e-010 -2.90554 0.965183 -0.102902 1.31854e-009 -3.45495e-011 -8.31022e-010 -10.2786 0.731801 -0.0259123 1.31855e-009 -3.45494e-011 -8.31029e-010 -2.22167 -0.733487 0.20892 -2.03217e-016 0 -3.88251e-019 8.47762 -18.893 10.8318 -0.0907658 32.3625 0.655302 -7.19617 -16.5824 -19.0531 2.03217e-016 0 3.88251e-019 -1.84964 -17.1979 -3.59123 0.170159 29.5704 -0.75844 7.72598 -19.9949 16.5867 
